# xmcd
#
# Track frame offsets:
#   150
#   16001
#   29941
#   52246
#   69846
#   85271
#   104264
#   117481
#   133779
#   153774
#   166366
#   183082
#   198354
#   219689
#   231596
#
# Disc length: 3354 seconds
#
# Revision: 0
# Processed by: cddbd v1.5.1PL2 Copyright (c) Steve Scherf et al.
# Submitted via: uFREEDB 1.6.2
#
DISCID=d30d180f
DTITLE=The Top Song 7 - The Top Song 7
DYEAR=1970
DGENRE=UnClassifiable
TTITLE0=Paloma blanca
TTITLE1=There's a kind of hush
TTITLE2=All by myself
TTITLE3=Love hurt
TTITLE4=Do you now where you're going to
TTITLE5=Fernando
TTITLE6=Saturday night
TTITLE7=December,1963  Oh, What a night
TTITLE8=Don't go breaking my heart
TTITLE9=Only sixteen
TTITLE10=Come on over
TTITLE11=Please Mr.Please
TTITLE12=Diamonds and Rust
TTITLE13=I'd really love to see you tonight
TTITLE14=Kiss and Say Goodbye
EXTD=
EXTT0=
EXTT1=
EXTT2=
EXTT3=
EXTT4=
EXTT5=
EXTT6=
EXTT7=
EXTT8=
EXTT9=
EXTT10=
EXTT11=
EXTT12=
EXTT13=
EXTT14=
PLAYORDER=
